# xmcd CD database file
#
# Track frame offsets:
#	150
#	21312
#	43497
#	64555
#
# Disc length: 1151 seconds
#
# Revision: 6
# Processed by: cddbd v1.5.1PL2 Copyright (c) Steve Scherf et al.
# Submitted via: CDex 1.51
#
DISCID=33047d04
DTITLE=大竹 佑季 - 天使が舞い降りてくる日／Scarborough Fair
DYEAR=2005
DGENRE=JPop
TTITLE0=天使が舞い降りてくる日
TTITLE1=Scarborough Fair
TTITLE2=天使が舞い降りてくる日 (inst.)
TTITLE3=Scarborough Fair (inst.)
EXTD=YEAR: 2005
EXTT0=
EXTT1=
EXTT2=
EXTT3=
PLAYORDER=
